<svg xmlns:svg="http://www.w3.org/2000/svg" xmlns="http://www.w3.org/2000/svg" version="1.1" width="40.7" height="39.7" xml:space="preserve"><defs><clipPath><path d="m0 552 531 0L531 0 0 0 0 552z"/></clipPath></defs><g transform="translate(0.09154935,0.39170496)"><path d="m36.7 15.6c0-2.8 0.5-2.8 0.5-6.2 0-7.5-9.2-6.6-9.2-6 0 0.9 4-1.5 4 4.2 0 1.8-0.2 3-0.2 4.9 0 6.7 6.8 6.2 6.8 6.9 0 0.8-6.8 0.2-6.8 6.9 0 1.9 0.2 3.1 0.2 4.9 0 5.7-4 3.3-4 4.2 0 0.6 9.2 1.6 9.2-6 0-3.4-0.5-3.4-0.5-6.2 0-3.9 3.7-2.8 3.7-3.9 0-1.1-3.7 0-3.7-3.9zM3.8 15.6 3.8 15.6 3.8 15.6 3.8 15.6 3.8 15.6c0-2.8-0.5-2.8-0.5-6.2 0-7.5 9.2-6.6 9.2-6 0 0.9-4-1.5-4 4.2 0 1.8 0.2 3 0.2 4.9 0 6.7-6.8 6.2-6.8 6.9 0 0.8 6.8 0.2 6.8 6.9 0 1.9-0.2 3.1-0.2 4.9 0 5.7 4 3.3 4 4.2 0 0.6-9.2 1.6-9.2-6 0-3.4 0.5-3.4 0.5-6.2 0-3.9-3.7-2.8-3.7-3.9 0-1.1 3.7 0 3.7-3.9z" fill="#111"/></g></svg>
